{"glyphs":{"0":{"ha":1068,"x_min":0,"x_max":0,"o":"m 683 799 b 825 657 761 799 825 735 l 825 314 b 683 172 825 236 761 172 l 383 172 b 242 314 306 172 242 236 l 242 657 b 383 799 242 735 306 799 z m 383 972 b 69 658 210 972 69 832 l 69 315 b 383 1 69 142 210 1 l 683 1 b 997 315 857 1 997 142 l 997 658 b 683 972 997 832 857 972 z "},"1":{"ha":469,"x_min":0,"x_max":0,"o":"m 400 646 b 392 717 400 671 397 694 b 368 782 386 739 378 761 b 228 924 339 843 289 893 l 228 924 b 110 956 192 942 151 953 l 110 957 l 93 957 b 93 957 93 957 93 957 l 93 957 l 72 957 l 72 785 l 94 785 b 111 785 100 785 106 785 b 229 667 172 776 221 728 l 229 -12 l 403 -12 l 403 649 b 403 649 403 649 403 649 z "},"2":{"ha":1111,"x_min":0,"x_max":0,"o":"m 243 174 l 243 286 b 344 399 243 344 288 393 l 756 399 b 760 399 757 399 758 399 l 764 399 b 960 486 840 401 910 435 b 1018 572 985 511 1004 540 b 1042 685 1033 607 1042 644 b 756 971 1042 843 914 971 l 71 971 l 71 797 l 756 797 b 868 683 818 797 868 746 b 765 571 868 625 824 576 l 761 571 l 344 571 b 92 396 231 567 133 496 b 68 283 76 361 68 324 l 68 -3 l 353 -3 b 353 -3 353 -3 353 -3 l 1038 -3 l 1038 171 z "},"3":{"ha":1111,"x_min":0,"x_max":0,"o":"m 1042 682 b 756 968 1042 840 914 968 l 71 968 l 71 794 l 756 794 b 869 681 818 794 869 743 b 761 567 869 619 821 569 b 757 567 760 567 758 567 l 244 567 l 244 393 l 757 393 b 761 393 758 393 760 393 b 868 279 821 390 868 340 b 754 165 868 217 817 165 l 69 165 l 69 -8 l 754 -8 b 1040 278 913 -8 1040 119 b 960 478 1040 356 1010 426 b 1040 678 1010 529 1040 600 z "},"4":{"ha":1111,"x_min":0,"x_max":0,"o":"m 868 972 l 868 572 l 356 572 b 242 686 293 572 242 624 l 242 972 l 68 972 l 68 686 b 224 432 68 575 131 479 b 354 400 263 411 307 400 l 867 400 l 867 0 l 1040 0 l 1040 972 z "},"5":{"ha":1111,"x_min":0,"x_max":0,"o":"m 1018 396 b 765 569 976 496 879 567 b 756 569 761 569 758 569 l 243 569 l 243 794 l 960 794 l 960 968 l 69 968 l 69 396 l 767 396 b 867 283 824 390 867 342 b 754 169 867 221 817 169 l 69 169 l 69 -4 l 754 -4 b 1040 282 913 -4 1040 124 b 1017 394 1040 322 1032 360 z "},"6":{"ha":1111,"x_min":0,"x_max":0,"o":"m 960 486 b 960 486 960 486 960 486 b 960 486 960 486 960 486 b 758 574 908 539 838 572 l 757 574 b 753 574 756 574 754 574 l 354 574 b 350 574 353 574 351 574 l 349 574 b 240 551 311 574 274 565 l 240 688 b 354 801 240 750 292 801 l 958 801 l 958 975 l 354 975 b 224 943 307 975 263 964 b 140 878 192 926 164 904 b 68 690 96 828 68 763 l 68 292 b 90 179 68 251 76 214 b 354 4 133 76 235 4 l 753 4 b 1039 290 911 4 1039 132 b 958 490 1039 368 1008 439 z m 753 178 l 354 178 b 240 292 292 178 240 229 b 349 406 240 353 289 403 l 350 406 b 354 406 351 406 353 406 l 753 406 b 757 406 754 406 756 406 l 758 406 b 865 292 818 403 865 353 b 751 178 865 229 814 178 z "},"7":{"ha":940,"x_min":0,"x_max":0,"o":"m 839 799 b 699 940 810 860 760 910 b 563 972 657 961 611 972 l 69 972 l 69 799 l 579 799 b 697 681 640 790 689 742 l 697 1 l 871 1 l 871 664 b 839 800 871 713 860 758 z "},"8":{"ha":1111,"x_min":0,"x_max":0,"o":"m 960 486 b 1040 686 1010 538 1040 608 b 960 886 1040 764 1010 835 b 758 974 908 939 838 972 b 754 974 757 974 756 974 l 356 974 b 351 974 354 974 353 974 b 243 951 314 974 276 965 b 151 886 208 936 178 914 b 71 686 101 835 71 764 b 93 574 71 646 79 608 b 153 486 107 540 128 511 b 153 486 153 486 153 486 b 72 286 103 435 72 364 b 94 174 72 246 81 208 b 358 -1 138 71 239 -1 l 757 -1 b 1043 285 915 -1 1043 126 b 963 485 1043 363 1013 433 b 963 485 963 485 963 485 z m 757 172 l 358 172 b 244 286 296 172 244 224 b 351 399 244 346 292 396 b 356 399 353 399 354 399 l 754 399 b 758 399 756 399 757 399 b 865 285 818 396 865 346 b 751 171 865 222 814 171 z m 754 569 b 750 569 753 569 751 569 l 351 569 b 347 569 350 569 349 569 b 236 682 286 571 236 621 b 344 796 236 743 285 793 l 754 796 b 861 682 814 793 861 743 b 750 569 861 621 811 571 z "},"9":{"ha":1111,"x_min":0,"x_max":0,"o":"m 1018 797 b 754 972 975 900 874 972 l 356 972 b 69 686 197 972 69 844 b 150 486 69 608 100 538 b 150 486 150 486 150 486 b 351 399 201 433 272 400 l 353 399 b 357 399 354 399 356 399 l 756 399 b 760 399 757 399 758 399 l 761 399 b 869 421 799 399 836 407 l 869 285 b 756 171 869 222 818 171 l 151 171 l 151 -3 l 756 -3 b 886 29 803 -3 847 8 b 950 75 910 42 931 57 b 1042 286 1007 128 1042 203 l 1042 685 b 1019 797 1042 725 1033 763 z m 357 799 l 756 799 b 869 685 818 799 869 747 b 761 571 869 624 821 574 l 760 571 b 756 571 758 571 757 571 l 357 571 b 353 571 356 571 354 571 l 351 571 b 243 685 292 574 243 624 b 357 799 243 747 294 799 z "},"\u0000":{"ha":139,"x_min":0,"x_max":0,"o":""},"\n":{"ha":139,"x_min":0,"x_max":0,"o":""},"\r":{"ha":139,"x_min":0,"x_max":0,"o":""}," ":{"ha":676,"x_min":0,"x_max":0,"o":""},"!":{"ha":313,"x_min":0,"x_max":0,"o":"m 243 -10 l 243 164 l 69 164 l 69 -10 z m 69 963 l 69 729 l 115 235 l 197 235 l 243 729 l 243 963 z "},"\"":{"ha":533,"x_min":0,"x_max":0,"o":"m 464 700 l 464 1042 l 290 1042 l 290 700 z m 242 700 l 242 1042 l 68 1042 l 68 700 z "},"#":{"ha":1115,"x_min":0,"x_max":0,"o":"m 821 569 l 821 569 l 1013 569 l 1047 743 l 856 743 l 899 961 l 724 961 l 681 743 l 681 743 l 544 743 l 588 961 l 411 961 l 411 961 l 368 743 l 368 743 l 368 743 l 368 743 l 368 743 l 178 743 l 178 743 l 178 743 l 178 742 l 143 569 l 333 569 l 333 569 l 333 569 l 297 390 l 296 382 l 296 382 l 106 382 l 106 382 l 101 365 l 79 249 l 71 207 l 261 207 l 244 125 l 228 36 l 218 -11 l 218 -11 l 218 -11 l 394 -11 l 438 207 l 438 207 l 574 207 l 531 -11 l 531 -11 l 531 -11 l 707 -11 l 750 207 l 750 207 l 942 207 l 943 213 l 976 381 l 785 381 l 786 386 z m 646 569 l 610 388 l 608 382 l 474 382 l 475 388 l 511 571 l 511 571 l 647 571 l 647 571 z "},"$":{"ha":1058,"x_min":0,"x_max":0,"o":"m 989 640 l 989 646 b 726 908 989 790 871 908 l 617 908 l 617 1096 l 443 1096 l 443 908 l 332 908 b 71 646 188 908 71 790 l 71 640 b 117 492 71 585 88 533 b 150 450 126 476 138 463 b 332 376 197 404 261 376 l 368 376 b 376 376 371 376 374 376 l 442 376 l 442 193 l 332 193 b 243 282 283 193 243 233 l 243 288 l 69 288 l 69 282 b 332 19 69 138 188 19 l 442 19 l 442 -156 l 615 -156 l 615 19 l 726 19 b 988 282 871 19 988 138 l 988 288 b 942 436 988 343 971 394 b 908 478 932 451 921 465 b 726 551 861 524 797 551 l 690 551 b 682 551 688 551 685 551 l 617 551 l 617 735 l 726 735 b 815 646 775 735 815 694 l 815 640 z m 442 551 l 331 551 b 242 640 282 551 242 592 l 242 646 b 331 735 242 694 282 735 l 442 735 z m 726 378 b 815 289 775 378 815 338 l 815 283 b 726 194 815 235 775 194 l 615 194 l 615 378 z "},"%":{"ha":1289,"x_min":0,"x_max":0,"o":"m 794 951 l 283 -21 l 479 -21 l 990 951 z m 971 472 b 725 226 835 472 725 363 b 971 -19 725 90 835 -19 b 1217 226 1107 -19 1217 90 b 971 472 1217 363 1107 472 z m 971 153 b 897 226 931 153 897 186 b 971 300 897 267 931 300 b 1044 226 1011 300 1044 267 b 971 153 1044 186 1011 153 z m 561 706 b 315 951 561 842 451 951 b 69 706 179 951 69 842 b 315 460 69 569 179 460 b 561 706 451 460 561 569 z m 242 706 b 315 779 242 746 275 779 b 389 706 356 779 389 746 b 315 632 389 665 356 632 b 242 706 275 632 242 665 z "},"&":{"ha":1099,"x_min":0,"x_max":0,"o":"m 356 574 b 243 688 294 574 243 625 b 356 800 243 749 294 800 l 857 800 l 857 974 l 356 974 b 71 689 199 974 71 846 b 151 489 71 611 101 540 b 71 289 101 438 71 367 b 356 4 71 132 199 4 l 857 4 l 857 403 l 1031 403 l 1031 578 z m 685 178 l 357 178 b 244 290 296 178 244 229 b 357 404 244 353 296 404 l 685 404 z "},"'":{"ha":313,"x_min":0,"x_max":0,"o":"m 243 697 l 243 1042 l 69 1042 l 69 697 z "},"(":{"ha":556,"x_min":0,"x_max":0,"o":"m 486 1031 l 269 1031 b 274 -224 110 796 -89 333 l 486 -224 b 485 1031 6 406 361 893 z "},")":{"ha":556,"x_min":0,"x_max":0,"o":"m 286 1031 l 69 1031 b 68 -224 193 893 549 406 l 281 -224 b 285 1031 643 333 444 796 z "},"*":{"ha":538,"x_min":0,"x_max":0,"o":"m 324 818 b 469 851 372 829 421 840 b 440 943 460 882 450 913 b 303 885 394 924 349 904 b 318 1031 307 933 313 982 b 222 1031 286 1031 254 1031 b 235 885 226 982 231 933 l 235 885 b 97 943 189 904 143 924 b 68 851 88 913 78 882 b 214 818 117 840 165 829 b 118 706 182 781 150 743 b 193 651 143 688 168 669 b 268 781 218 694 243 738 b 343 651 293 738 318 694 b 418 706 368 669 393 688 b 322 818 386 743 354 781 z "},"+":{"ha":797,"x_min":0,"x_max":0,"o":"m 486 546 l 486 789 l 313 789 l 313 546 l 69 546 l 69 372 l 313 372 l 313 129 l 486 129 l 486 372 l 729 372 l 729 546 z "},",":{"ha":313,"x_min":0,"x_max":0,"o":"m 69 164 l 69 -10 l 69 -10 l 156 -183 l 242 -183 l 242 164 z "},"-":{"ha":797,"x_min":0,"x_max":0,"o":"m 728 372 l 728 546 l 69 546 l 69 372 z "},".":{"ha":313,"x_min":0,"x_max":0,"o":"m 243 -10 l 243 164 l 69 164 l 69 -10 z "},"/":{"ha":594,"x_min":0,"x_max":0,"o":"m 344 951 l 244 597 l 196 424 l 69 -21 l 250 -21 l 376 424 l 425 597 l 525 951 z "},":":{"ha":313,"x_min":0,"x_max":0,"o":"m 243 -10 l 243 164 l 69 164 l 69 -10 z m 243 521 l 243 694 l 69 694 l 69 521 z "},";":{"ha":313,"x_min":0,"x_max":0,"o":"m 69 -10 l 69 -10 l 156 -183 l 242 -183 l 242 164 l 68 164 z m 242 521 l 242 694 l 68 694 l 68 521 z "},"<":{"ha":797,"x_min":0,"x_max":0,"o":"m 575 551 l 729 606 l 729 790 l 486 704 l 313 643 l 69 557 l 69 372 l 313 286 l 486 225 l 729 139 l 729 324 l 575 378 l 486 410 l 329 465 l 486 521 z "},"=":{"ha":797,"x_min":0,"x_max":0,"o":"m 728 510 l 728 683 l 69 683 l 69 510 z m 728 217 l 728 390 l 69 390 l 69 217 z "},">":{"ha":797,"x_min":0,"x_max":0,"o":"m 486 642 l 313 703 l 69 789 l 69 604 l 224 550 l 313 518 l 469 463 l 313 407 l 224 375 l 69 321 l 69 136 l 313 222 l 486 283 l 729 369 l 729 554 z "},"?":{"ha":1058,"x_min":0,"x_max":0,"o":"m 615 -10 l 615 164 l 442 164 l 442 -10 z m 956 789 b 678 963 906 892 800 963 l 379 963 b 101 789 257 963 151 892 b 69 653 81 747 69 701 l 243 653 b 379 789 243 728 304 789 l 678 789 b 814 653 753 789 814 728 b 678 517 814 578 753 517 l 442 517 l 442 236 l 615 236 l 615 344 l 678 344 b 988 654 849 344 988 483 b 956 792 988 703 976 750 z "},"@":{"ha":1111,"x_min":0,"x_max":0,"o":"m 556 963 b 69 476 288 963 69 744 b 556 -10 69 208 288 -10 l 1042 -10 l 1042 164 l 556 164 b 243 476 383 164 243 304 b 556 789 243 649 383 789 l 868 789 l 868 511 l 694 511 l 694 617 l 556 617 l 556 617 b 556 617 556 617 556 617 b 417 478 479 617 417 554 b 556 339 417 401 479 339 b 556 339 556 339 556 339 l 556 339 l 1040 339 l 1040 964 z "},"A":{"ha":1021,"x_min":0,"x_max":0,"o":"m 918 174 l 511 972 l 104 174 l 15 0 l 210 0 l 299 174 l 511 590 l 724 174 l 813 0 l 1007 0 z "},"À":{"ha":1021,"x_min":0,"x_max":0,"o":"m 918 174 l 511 972 l 104 174 l 15 0 l 210 0 l 299 174 l 511 590 l 724 174 l 813 0 l 1007 0 z "},"Á":{"ha":1021,"x_min":0,"x_max":0,"o":"m 918 174 l 511 972 l 104 174 l 15 0 l 210 0 l 299 174 l 511 590 l 724 174 l 813 0 l 1007 0 z "},"Â":{"ha":1021,"x_min":0,"x_max":0,"o":"m 918 174 l 511 972 l 104 174 l 15 0 l 210 0 l 299 174 l 511 590 l 724 174 l 813 0 l 1007 0 z "},"Ã":{"ha":1021,"x_min":0,"x_max":0,"o":"m 918 174 l 511 972 l 104 174 l 15 0 l 210 0 l 299 174 l 511 590 l 724 174 l 813 0 l 1007 0 z "},"Ä":{"ha":1021,"x_min":0,"x_max":0,"o":"m 918 174 l 511 972 l 104 174 l 15 0 l 210 0 l 299 174 l 511 590 l 724 174 l 813 0 l 1007 0 z "},"Å":{"ha":1021,"x_min":0,"x_max":0,"o":"m 918 174 l 511 972 l 104 174 l 15 0 l 210 0 l 299 174 l 511 590 l 724 174 l 813 0 l 1007 0 z "},"B":{"ha":1076,"x_min":0,"x_max":0,"o":"m 903 568 b 944 710 929 608 944 657 b 682 972 944 854 826 972 l 69 972 l 69 0 l 69 0 l 69 0 l 732 0 b 1042 310 903 0 1042 139 b 903 568 1042 418 986 513 z m 243 799 l 683 799 b 772 710 732 799 772 758 b 683 621 772 661 732 621 l 243 621 z m 732 174 l 243 174 l 243 447 l 732 447 b 868 311 807 447 868 386 b 732 175 868 236 807 175 z "},"C":{"ha":1097,"x_min":0,"x_max":0,"o":"m 542 799 l 1028 799 l 1028 972 l 542 972 b 56 486 274 972 56 754 b 542 0 56 218 274 0 l 1028 0 l 1028 174 l 542 174 b 229 486 369 174 229 314 b 542 799 229 658 369 799 z "},"Ç":{"ha":1097,"x_min":0,"x_max":0,"o":"m 542 799 l 1028 799 l 1028 972 l 542 972 b 56 486 274 972 56 754 b 542 0 56 218 274 0 l 1028 0 l 1028 174 l 542 174 b 229 486 369 174 229 314 b 542 799 229 658 369 799 z "},"D":{"ha":1111,"x_min":0,"x_max":0,"o":"m 69 972 l 69 0 l 556 0 b 897 143 689 0 810 54 b 925 172 907 153 917 163 b 1040 486 997 257 1040 367 b 554 971 1040 754 822 971 z m 242 797 l 554 797 b 867 485 726 797 867 657 b 554 172 867 313 726 172 l 242 172 z "},"E":{"ha":1111,"x_min":0,"x_max":0,"o":"m 332 799 l 1042 799 l 1042 972 l 332 972 b 71 710 188 972 71 854 l 71 263 b 332 0 71 118 188 0 l 1042 0 l 1042 174 l 332 174 b 243 263 283 174 243 214 l 243 446 l 868 446 l 868 619 l 243 619 l 243 710 b 332 799 243 758 283 799 z "},"È":{"ha":1111,"x_min":0,"x_max":0,"o":"m 332 799 l 1042 799 l 1042 972 l 332 972 b 71 710 188 972 71 854 l 71 263 b 332 0 71 118 188 0 l 1042 0 l 1042 174 l 332 174 b 243 263 283 174 243 214 l 243 446 l 868 446 l 868 619 l 243 619 l 243 710 b 332 799 243 758 283 799 z "},"É":{"ha":1111,"x_min":0,"x_max":0,"o":"m 332 799 l 1042 799 l 1042 972 l 332 972 b 71 710 188 972 71 854 l 71 263 b 332 0 71 118 188 0 l 1042 0 l 1042 174 l 332 174 b 243 263 283 174 243 214 l 243 446 l 868 446 l 868 619 l 243 619 l 243 710 b 332 799 243 758 283 799 z "},"Ê":{"ha":1111,"x_min":0,"x_max":0,"o":"m 332 799 l 1042 799 l 1042 972 l 332 972 b 71 710 188 972 71 854 l 71 263 b 332 0 71 118 188 0 l 1042 0 l 1042 174 l 332 174 b 243 263 283 174 243 214 l 243 446 l 868 446 l 868 619 l 243 619 l 243 710 b 332 799 243 758 283 799 z "},"Ë":{"ha":1111,"x_min":0,"x_max":0,"o":"m 332 799 l 1042 799 l 1042 972 l 332 972 b 71 710 188 972 71 854 l 71 263 b 332 0 71 118 188 0 l 1042 0 l 1042 174 l 332 174 b 243 263 283 174 243 214 l 243 446 l 868 446 l 868 619 l 243 619 l 243 710 b 332 799 243 758 283 799 z "},"F":{"ha":1111,"x_min":0,"x_max":0,"o":"m 332 972 b 71 710 188 972 71 854 l 71 0 l 243 0 l 243 446 l 869 446 l 869 619 l 244 619 l 244 710 b 333 799 244 758 285 799 l 1043 799 l 1043 972 z "},"G":{"ha":1111,"x_min":0,"x_max":0,"o":"m 556 799 l 1042 799 l 1042 972 l 556 972 b 69 486 288 972 69 754 b 556 0 69 218 288 0 l 1042 0 l 1042 533 l 556 533 l 556 360 l 868 360 l 868 174 l 556 174 b 243 486 383 174 243 314 b 556 799 243 658 383 799 z "},"H":{"ha":1111,"x_min":0,"x_max":0,"o":"m 868 972 l 868 619 l 243 619 l 243 972 l 69 972 l 69 0 l 243 0 l 243 446 l 868 446 l 868 0 l 1042 0 l 1042 972 z "},"I":{"ha":313,"x_min":0,"x_max":0,"o":"m 243 0 l 243 972 l 69 972 l 69 0 z "},"Ì":{"ha":313,"x_min":0,"x_max":0,"o":"m 243 0 l 243 972 l 69 972 l 69 0 z "},"Í":{"ha":313,"x_min":0,"x_max":0,"o":"m 243 0 l 243 972 l 69 972 l 69 0 z "},"Î":{"ha":313,"x_min":0,"x_max":0,"o":"m 243 0 l 243 972 l 69 972 l 69 0 z "},"Ï":{"ha":313,"x_min":0,"x_max":0,"o":"m 243 0 l 243 972 l 69 972 l 69 0 z "},"J":{"ha":1111,"x_min":0,"x_max":0,"o":"m 868 972 l 868 263 b 779 174 868 214 828 174 l 332 174 b 243 263 283 174 243 214 l 243 444 l 69 444 l 69 263 b 332 1 69 118 188 1 l 779 1 b 1042 263 924 1 1042 118 l 1042 972 z "},"K":{"ha":1111,"x_min":0,"x_max":0,"o":"m 1042 972 l 785 972 l 514 724 l 385 606 l 242 475 l 242 972 l 68 972 l 68 0 l 242 0 l 242 240 l 488 464 l 824 0 l 1038 0 l 617 582 z "},"L":{"ha":940,"x_min":0,"x_max":0,"o":"m 361 174 b 243 292 300 182 251 231 l 243 971 l 69 971 l 69 308 b 101 172 69 260 81 214 b 242 31 131 111 181 61 b 378 -1 283 10 329 -1 l 871 -1 l 871 172 z "},"M":{"ha":1111,"x_min":0,"x_max":0,"o":"m 868 839 l 556 599 l 243 839 l 69 972 l 69 0 l 243 0 l 243 619 l 414 489 l 556 379 l 697 489 l 868 619 l 868 0 l 1042 0 l 1042 972 z "},"N":{"ha":1111,"x_min":0,"x_max":0,"o":"m 868 972 l 868 353 l 243 835 l 69 968 l 69 -1 l 243 -1 l 243 614 l 868 132 l 1042 -1 l 1042 971 z "},"Ñ":{"ha":1111,"x_min":0,"x_max":0,"o":"m 868 972 l 868 353 l 243 835 l 69 968 l 69 -1 l 243 -1 l 243 614 l 868 132 l 1042 -1 l 1042 971 z "},"O":{"ha":1042,"x_min":0,"x_max":0,"o":"m 521 972 b 35 486 253 972 35 754 b 521 0 35 218 253 0 b 1007 486 789 0 1007 218 b 521 972 1007 754 789 972 z m 521 174 b 208 486 349 174 208 314 b 521 799 208 658 349 799 b 833 486 693 799 833 658 b 521 174 833 314 693 174 z "},"Ò":{"ha":1042,"x_min":0,"x_max":0,"o":"m 521 972 b 35 486 253 972 35 754 b 521 0 35 218 253 0 b 1007 486 789 0 1007 218 b 521 972 1007 754 789 972 z m 521 174 b 208 486 349 174 208 314 b 521 799 208 658 349 799 b 833 486 693 799 833 658 b 521 174 833 314 693 174 z "},"Ó":{"ha":1042,"x_min":0,"x_max":0,"o":"m 521 972 b 35 486 253 972 35 754 b 521 0 35 218 253 0 b 1007 486 789 0 1007 218 b 521 972 1007 754 789 972 z m 521 174 b 208 486 349 174 208 314 b 521 799 208 658 349 799 b 833 486 693 799 833 658 b 521 174 833 314 693 174 z "},"Ô":{"ha":1042,"x_min":0,"x_max":0,"o":"m 521 972 b 35 486 253 972 35 754 b 521 0 35 218 253 0 b 1007 486 789 0 1007 218 b 521 972 1007 754 789 972 z m 521 174 b 208 486 349 174 208 314 b 521 799 208 658 349 799 b 833 486 693 799 833 658 b 521 174 833 314 693 174 z "},"Õ":{"ha":1042,"x_min":0,"x_max":0,"o":"m 521 972 b 35 486 253 972 35 754 b 521 0 35 218 253 0 b 1007 486 789 0 1007 218 b 521 972 1007 754 789 972 z m 521 174 b 208 486 349 174 208 314 b 521 799 208 658 349 799 b 833 486 693 799 833 658 b 521 174 833 314 693 174 z "},"Ö":{"ha":1042,"x_min":0,"x_max":0,"o":"m 521 972 b 35 486 253 972 35 754 b 521 0 35 218 253 0 b 1007 486 789 0 1007 218 b 521 972 1007 754 789 972 z m 521 174 b 208 486 349 174 208 314 b 521 799 208 658 349 799 b 833 486 693 799 833 658 b 521 174 833 314 693 174 z "},"Ø":{"ha":1042,"x_min":0,"x_max":0,"o":"m 521 972 b 35 486 253 972 35 754 b 521 0 35 218 253 0 b 1007 486 789 0 1007 218 b 521 972 1007 754 789 972 z m 521 174 b 208 486 349 174 208 314 b 521 799 208 658 349 799 b 833 486 693 799 833 658 b 521 174 833 314 693 174 z "},"P":{"ha":1014,"x_min":0,"x_max":0,"o":"m 868 896 b 683 972 821 943 756 972 l 71 972 l 71 972 l 71 972 l 71 0 l 244 0 l 244 447 l 710 447 l 710 449 b 718 449 713 449 715 449 b 793 469 744 451 769 458 b 946 708 883 511 946 603 b 869 893 946 781 917 846 z m 721 626 b 685 618 710 621 697 618 l 244 618 l 244 797 l 685 797 b 747 772 715 797 736 783 b 774 708 757 763 774 740 b 721 628 774 674 753 642 z "},"Q":{"ha":1111,"x_min":0,"x_max":0,"o":"m 1042 486 b 556 972 1042 754 824 972 b 69 486 288 972 69 754 b 556 0 69 218 288 0 b 560 0 557 0 558 0 l 1040 0 l 1040 174 l 926 174 b 1040 486 997 258 1040 367 z m 563 174 l 554 174 l 554 174 b 242 486 382 174 242 314 b 554 799 242 658 382 799 b 867 486 726 799 867 658 b 563 174 867 317 731 178 z "},"R":{"ha":1014,"x_min":0,"x_max":0,"o":"m 715 449 b 715 449 715 449 715 449 b 790 469 742 451 767 458 b 943 708 881 511 943 603 b 867 894 943 781 914 846 b 682 971 819 942 754 971 l 68 971 l 68 -1 l 242 -1 l 242 446 l 415 446 b 563 363 478 446 532 413 l 567 354 l 660 172 l 749 -1 l 943 -1 l 854 172 z m 242 618 l 242 797 l 682 797 b 744 772 713 797 733 783 b 771 708 754 763 771 740 b 718 628 771 674 750 642 b 682 619 707 622 694 619 z "},"S":{"ha":1058,"x_min":0,"x_max":0,"o":"m 989 704 l 989 710 b 726 972 989 854 871 972 l 332 972 b 71 710 188 972 71 854 l 71 704 b 117 556 71 649 88 597 b 150 514 126 540 138 526 b 332 440 197 468 261 440 l 682 440 b 817 307 756 440 817 381 b 682 174 817 233 756 174 l 378 174 b 244 307 304 174 244 233 l 71 307 b 378 0 71 138 208 0 l 682 0 b 989 307 851 0 989 138 b 919 501 989 381 963 449 b 908 514 915 506 913 510 b 682 614 853 575 772 614 l 332 614 b 243 703 283 614 243 654 l 243 708 b 332 797 243 757 283 797 l 726 797 b 815 708 775 797 815 757 l 815 703 z "},"T":{"ha":1111,"x_min":0,"x_max":0,"o":"m 69 971 l 69 797 l 468 797 l 468 -1 l 642 -1 l 642 797 l 1040 797 l 1040 971 z "},"U":{"ha":1111,"x_min":0,"x_max":0,"o":"m 868 972 l 868 486 b 556 174 868 314 728 174 b 243 486 383 174 243 314 l 243 972 l 69 972 l 69 486 b 556 0 69 218 288 0 b 1042 486 824 0 1042 218 l 1042 972 z "},"Ù":{"ha":1111,"x_min":0,"x_max":0,"o":"m 868 972 l 868 486 b 556 174 868 314 728 174 b 243 486 383 174 243 314 l 243 972 l 69 972 l 69 486 b 556 0 69 218 288 0 b 1042 486 824 0 1042 218 l 1042 972 z "},"Ú":{"ha":1111,"x_min":0,"x_max":0,"o":"m 868 972 l 868 486 b 556 174 868 314 728 174 b 243 486 383 174 243 314 l 243 972 l 69 972 l 69 486 b 556 0 69 218 288 0 b 1042 486 824 0 1042 218 l 1042 972 z "},"Û":{"ha":1111,"x_min":0,"x_max":0,"o":"m 868 972 l 868 486 b 556 174 868 314 728 174 b 243 486 383 174 243 314 l 243 972 l 69 972 l 69 486 b 556 0 69 218 288 0 b 1042 486 824 0 1042 218 l 1042 972 z "},"Ü":{"ha":1111,"x_min":0,"x_max":0,"o":"m 868 972 l 868 486 b 556 174 868 314 728 174 b 243 486 383 174 243 314 l 243 972 l 69 972 l 69 486 b 556 0 69 218 288 0 b 1042 486 824 0 1042 218 l 1042 972 z "},"V":{"ha":1021,"x_min":0,"x_max":0,"o":"m 811 972 l 722 799 l 510 382 l 297 799 l 208 972 l 14 972 l 103 799 l 510 0 l 917 799 l 1006 972 z "},"W":{"ha":1358,"x_min":0,"x_max":0,"o":"m 1289 972 l 1108 972 l 933 386 l 786 590 l 758 629 l 679 738 l 600 629 l 572 590 l 425 386 l 425 386 l 425 386 l 250 972 l 69 972 l 296 210 l 358 1 l 358 1 l 358 1 l 486 178 l 678 443 l 871 178 l 871 178 l 999 0 l 999 0 l 999 0 l 1061 210 l 1061 210 z "},"X":{"ha":1042,"x_min":0,"x_max":0,"o":"m 35 -4 l 38 -1 l 35 -1 z m 1007 -1 l 1006 -1 l 1007 -4 z m 1007 971 l 789 971 l 522 625 l 256 971 l 36 971 l 413 483 l 39 -1 l 258 -1 l 524 342 l 789 -1 l 1008 -1 l 633 483 l 1010 971 z "},"Y":{"ha":1001,"x_min":0,"x_max":0,"o":"m 768 974 l 501 628 l 235 974 l 15 974 l 392 486 l 392 486 l 415 457 l 415 1 l 589 1 l 589 460 l 610 486 l 610 486 l 986 974 l 986 974 z m 14 -3 l 17 0 l 14 0 z m 986 -3 l 986 0 l 985 0 z "},"Ý":{"ha":1001,"x_min":0,"x_max":0,"o":"m 768 974 l 501 628 l 235 974 l 15 974 l 392 486 l 392 486 l 415 457 l 415 1 l 589 1 l 589 460 l 610 486 l 610 486 l 986 974 l 986 974 z m 14 -3 l 17 0 l 14 0 z m 986 -3 l 986 0 l 985 0 z "},"Z":{"ha":1111,"x_min":0,"x_max":0,"o":"m 425 175 l 556 343 l 665 485 l 907 799 l 1042 972 l 1042 972 l 824 972 l 824 972 l 72 972 l 72 799 l 690 799 l 557 626 l 447 485 l 208 175 l 75 1 l 74 0 l 293 0 l 294 1 l 1046 1 l 1046 175 z "},"[":{"ha":489,"x_min":0,"x_max":0,"o":"m 419 856 l 419 1029 l 69 1029 l 69 -221 l 419 -221 l 419 -47 l 242 -47 l 242 856 z "},"\\":{"ha":594,"x_min":0,"x_max":0,"o":"m 399 424 l 350 597 l 250 951 l 69 951 l 169 597 l 218 424 l 344 -21 l 525 -21 z "},"]":{"ha":489,"x_min":0,"x_max":0,"o":"m 69 1031 l 69 857 l 247 857 l 247 -46 l 69 -46 l 69 -219 l 419 -219 l 419 1031 z "},"_":{"ha":1111,"x_min":0,"x_max":0,"o":"m 1042 -254 l 1042 -81 l 69 -81 l 69 -254 z "},"a":{"ha":1019,"x_min":0,"x_max":0,"o":"m 917 174 l 510 972 l 103 174 l 14 0 l 208 0 l 297 174 l 510 590 l 722 174 l 811 0 l 1006 0 z "},"à":{"ha":1019,"x_min":0,"x_max":0,"o":"m 917 174 l 510 972 l 103 174 l 14 0 l 208 0 l 297 174 l 510 590 l 722 174 l 811 0 l 1006 0 z "},"á":{"ha":1019,"x_min":0,"x_max":0,"o":"m 917 174 l 510 972 l 103 174 l 14 0 l 208 0 l 297 174 l 510 590 l 722 174 l 811 0 l 1006 0 z "},"â":{"ha":1019,"x_min":0,"x_max":0,"o":"m 917 174 l 510 972 l 103 174 l 14 0 l 208 0 l 297 174 l 510 590 l 722 174 l 811 0 l 1006 0 z "},"ã":{"ha":1019,"x_min":0,"x_max":0,"o":"m 917 174 l 510 972 l 103 174 l 14 0 l 208 0 l 297 174 l 510 590 l 722 174 l 811 0 l 1006 0 z "},"ä":{"ha":1019,"x_min":0,"x_max":0,"o":"m 917 174 l 510 972 l 103 174 l 14 0 l 208 0 l 297 174 l 510 590 l 722 174 l 811 0 l 1006 0 z "},"å":{"ha":1019,"x_min":0,"x_max":0,"o":"m 917 174 l 510 972 l 103 174 l 14 0 l 208 0 l 297 174 l 510 590 l 722 174 l 811 0 l 1006 0 z "},"b":{"ha":1076,"x_min":0,"x_max":0,"o":"m 903 568 b 944 710 929 608 944 657 b 682 972 944 854 826 972 l 69 972 l 69 0 l 69 0 l 69 0 l 732 0 b 1042 310 903 0 1042 139 b 903 568 1042 418 986 513 z m 243 799 l 683 799 b 772 710 732 799 772 758 b 683 621 772 661 732 621 l 243 621 z m 732 174 l 243 174 l 243 447 l 732 447 b 868 311 807 447 868 386 b 732 175 868 236 807 175 z "},"c":{"ha":1097,"x_min":0,"x_max":0,"o":"m 542 799 l 1028 799 l 1028 972 l 542 972 b 56 486 274 972 56 754 b 542 0 56 218 274 0 l 1028 0 l 1028 174 l 542 174 b 229 486 369 174 229 314 b 542 799 229 658 369 799 z "},"ç":{"ha":1097,"x_min":0,"x_max":0,"o":"m 542 799 l 1028 799 l 1028 972 l 542 972 b 56 486 274 972 56 754 b 542 0 56 218 274 0 l 1028 0 l 1028 174 l 542 174 b 229 486 369 174 229 314 b 542 799 229 658 369 799 z "},"d":{"ha":1111,"x_min":0,"x_max":0,"o":"m 556 972 l 69 972 l 69 0 l 556 0 b 897 143 689 0 810 54 b 925 172 907 153 917 163 b 1040 486 997 257 1040 367 b 554 971 1040 754 822 971 z m 554 172 l 242 172 l 242 797 l 554 797 b 867 485 726 797 867 657 b 554 172 867 313 726 172 z "},"e":{"ha":1111,"x_min":0,"x_max":0,"o":"m 332 799 l 1042 799 l 1042 972 l 332 972 b 71 710 188 972 71 854 l 71 263 b 332 0 71 118 188 0 l 1042 0 l 1042 174 l 332 174 b 243 263 283 174 243 214 l 243 446 l 868 446 l 868 619 l 243 619 l 243 710 b 332 799 243 758 283 799 z "},"è":{"ha":1111,"x_min":0,"x_max":0,"o":"m 332 799 l 1042 799 l 1042 972 l 332 972 b 71 710 188 972 71 854 l 71 263 b 332 0 71 118 188 0 l 1042 0 l 1042 174 l 332 174 b 243 263 283 174 243 214 l 243 446 l 868 446 l 868 619 l 243 619 l 243 710 b 332 799 243 758 283 799 z "},"é":{"ha":1111,"x_min":0,"x_max":0,"o":"m 332 799 l 1042 799 l 1042 972 l 332 972 b 71 710 188 972 71 854 l 71 263 b 332 0 71 118 188 0 l 1042 0 l 1042 174 l 332 174 b 243 263 283 174 243 214 l 243 446 l 868 446 l 868 619 l 243 619 l 243 710 b 332 799 243 758 283 799 z "},"ê":{"ha":1111,"x_min":0,"x_max":0,"o":"m 332 799 l 1042 799 l 1042 972 l 332 972 b 71 710 188 972 71 854 l 71 263 b 332 0 71 118 188 0 l 1042 0 l 1042 174 l 332 174 b 243 263 283 174 243 214 l 243 446 l 868 446 l 868 619 l 243 619 l 243 710 b 332 799 243 758 283 799 z "},"ë":{"ha":1111,"x_min":0,"x_max":0,"o":"m 332 799 l 1042 799 l 1042 972 l 332 972 b 71 710 188 972 71 854 l 71 263 b 332 0 71 118 188 0 l 1042 0 l 1042 174 l 332 174 b 243 263 283 174 243 214 l 243 446 l 868 446 l 868 619 l 243 619 l 243 710 b 332 799 243 758 283 799 z "},"f":{"ha":1111,"x_min":0,"x_max":0,"o":"m 332 972 b 71 710 188 972 71 854 l 71 1 l 243 1 l 243 447 l 869 447 l 869 621 l 244 621 l 244 711 b 333 800 244 760 285 800 l 1043 800 l 1043 974 z "},"g":{"ha":1111,"x_min":0,"x_max":0,"o":"m 556 799 l 1042 799 l 1042 972 l 556 972 b 69 486 288 972 69 754 b 556 0 69 218 288 0 l 1042 0 l 1042 533 l 556 533 l 556 360 l 868 360 l 868 174 l 556 174 b 243 486 383 174 243 314 b 556 799 243 658 383 799 z "},"h":{"ha":1111,"x_min":0,"x_max":0,"o":"m 868 972 l 868 619 l 243 619 l 243 972 l 69 972 l 69 0 l 243 0 l 243 446 l 868 446 l 868 0 l 1042 0 l 1042 972 z "},"i":{"ha":313,"x_min":0,"x_max":0,"o":"m 243 0 l 243 972 l 69 972 l 69 0 z "},"ì":{"ha":313,"x_min":0,"x_max":0,"o":"m 243 0 l 243 972 l 69 972 l 69 0 z "},"í":{"ha":313,"x_min":0,"x_max":0,"o":"m 243 0 l 243 972 l 69 972 l 69 0 z "},"î":{"ha":313,"x_min":0,"x_max":0,"o":"m 243 0 l 243 972 l 69 972 l 69 0 z "},"ï":{"ha":313,"x_min":0,"x_max":0,"o":"m 243 0 l 243 972 l 69 972 l 69 0 z "},"j":{"ha":1111,"x_min":0,"x_max":0,"o":"m 868 972 l 868 263 b 779 174 868 214 828 174 l 332 174 b 243 263 283 174 243 214 l 243 444 l 69 444 l 69 263 b 332 1 69 118 188 1 l 779 1 b 1042 263 924 1 1042 118 l 1042 972 z "},"k":{"ha":1111,"x_min":0,"x_max":0,"o":"m 1042 972 l 785 972 l 514 724 l 385 606 l 242 475 l 242 972 l 68 972 l 68 0 l 242 0 l 242 240 l 488 464 l 824 0 l 1038 0 l 617 582 z "},"l":{"ha":940,"x_min":0,"x_max":0,"o":"m 361 174 b 243 292 300 182 251 231 l 243 971 l 69 971 l 69 308 b 101 172 69 260 81 214 b 242 31 131 111 181 61 b 378 -1 283 10 329 -1 l 871 -1 l 871 172 z "},"m":{"ha":1111,"x_min":0,"x_max":0,"o":"m 868 839 l 556 599 l 243 839 l 69 972 l 69 0 l 243 0 l 243 619 l 414 489 l 556 379 l 697 489 l 868 619 l 868 0 l 1042 0 l 1042 972 z "},"n":{"ha":1111,"x_min":0,"x_max":0,"o":"m 868 972 l 868 353 l 243 835 l 69 968 l 69 -1 l 243 -1 l 243 614 l 868 132 l 1042 -1 l 1042 971 z "},"ñ":{"ha":1111,"x_min":0,"x_max":0,"o":"m 868 972 l 868 353 l 243 835 l 69 968 l 69 -1 l 243 -1 l 243 614 l 868 132 l 1042 -1 l 1042 971 z "},"o":{"ha":1044,"x_min":0,"x_max":0,"o":"m 522 972 b 36 486 254 972 36 754 b 522 0 36 218 254 0 b 1008 486 790 0 1008 218 b 522 972 1008 754 790 972 z m 522 174 b 210 486 350 174 210 314 b 522 799 210 658 350 799 b 835 486 694 799 835 658 b 522 174 835 314 694 174 z "},"ò":{"ha":1044,"x_min":0,"x_max":0,"o":"m 522 972 b 36 486 254 972 36 754 b 522 0 36 218 254 0 b 1008 486 790 0 1008 218 b 522 972 1008 754 790 972 z m 522 174 b 210 486 350 174 210 314 b 522 799 210 658 350 799 b 835 486 694 799 835 658 b 522 174 835 314 694 174 z "},"ó":{"ha":1044,"x_min":0,"x_max":0,"o":"m 522 972 b 36 486 254 972 36 754 b 522 0 36 218 254 0 b 1008 486 790 0 1008 218 b 522 972 1008 754 790 972 z m 522 174 b 210 486 350 174 210 314 b 522 799 210 658 350 799 b 835 486 694 799 835 658 b 522 174 835 314 694 174 z "},"ô":{"ha":1044,"x_min":0,"x_max":0,"o":"m 522 972 b 36 486 254 972 36 754 b 522 0 36 218 254 0 b 1008 486 790 0 1008 218 b 522 972 1008 754 790 972 z m 522 174 b 210 486 350 174 210 314 b 522 799 210 658 350 799 b 835 486 694 799 835 658 b 522 174 835 314 694 174 z "},"õ":{"ha":1044,"x_min":0,"x_max":0,"o":"m 522 972 b 36 486 254 972 36 754 b 522 0 36 218 254 0 b 1008 486 790 0 1008 218 b 522 972 1008 754 790 972 z m 522 174 b 210 486 350 174 210 314 b 522 799 210 658 350 799 b 835 486 694 799 835 658 b 522 174 835 314 694 174 z "},"ö":{"ha":1044,"x_min":0,"x_max":0,"o":"m 522 972 b 36 486 254 972 36 754 b 522 0 36 218 254 0 b 1008 486 790 0 1008 218 b 522 972 1008 754 790 972 z m 522 174 b 210 486 350 174 210 314 b 522 799 210 658 350 799 b 835 486 694 799 835 658 b 522 174 835 314 694 174 z "},"ø":{"ha":1044,"x_min":0,"x_max":0,"o":"m 522 972 b 36 486 254 972 36 754 b 522 0 36 218 254 0 b 1008 486 790 0 1008 218 b 522 972 1008 754 790 972 z m 522 174 b 210 486 350 174 210 314 b 522 799 210 658 350 799 b 835 486 694 799 835 658 b 522 174 835 314 694 174 z "},"p":{"ha":1014,"x_min":0,"x_max":0,"o":"m 868 896 b 683 972 821 943 756 972 l 71 972 l 71 972 l 71 972 l 71 0 l 244 0 l 244 447 l 710 447 l 710 449 b 718 449 713 449 715 449 b 793 469 744 451 769 458 b 946 708 883 511 946 603 b 869 894 946 781 917 846 z m 721 628 b 685 619 710 622 697 619 l 244 619 l 244 799 l 685 799 b 747 774 715 799 736 785 b 774 710 757 764 774 742 b 721 629 774 675 753 643 z "},"q":{"ha":1111,"x_min":0,"x_max":0,"o":"m 1042 486 b 556 972 1042 754 824 972 b 69 486 288 972 69 754 b 556 0 69 218 288 0 b 560 0 557 0 558 0 l 1040 0 l 1040 174 l 926 174 b 1040 486 997 258 1040 367 z m 563 174 l 554 174 l 554 174 b 242 486 382 174 242 314 b 554 799 242 658 382 799 b 867 486 726 799 867 658 b 563 174 867 317 731 178 z "},"r":{"ha":1014,"x_min":0,"x_max":0,"o":"m 715 449 b 715 449 715 449 715 449 b 790 469 742 451 767 458 b 943 708 881 511 943 603 b 867 893 943 781 914 846 b 682 969 819 940 754 969 l 68 969 l 68 -3 l 242 -3 l 242 444 l 415 444 b 563 361 478 444 532 411 l 567 353 l 660 171 l 749 -3 l 943 -3 l 854 171 z m 242 617 l 242 796 l 682 796 b 744 771 713 796 733 782 b 771 707 754 761 771 739 b 718 626 771 672 750 640 b 682 618 707 621 694 618 z "},"s":{"ha":1058,"x_min":0,"x_max":0,"o":"m 989 704 l 989 710 b 726 972 989 854 871 972 l 332 972 b 71 710 188 972 71 854 l 71 704 b 117 556 71 649 88 597 b 150 514 126 540 138 526 b 332 440 197 468 261 440 l 682 440 b 817 307 756 440 817 381 b 682 174 817 233 756 174 l 378 174 b 244 307 304 174 244 233 l 71 307 b 378 0 71 138 208 0 l 682 0 b 989 307 851 0 989 138 b 919 501 989 381 963 449 b 908 514 915 506 913 510 b 682 614 853 575 772 614 l 332 614 b 243 703 283 614 243 654 l 243 708 b 332 797 243 757 283 797 l 726 797 b 815 708 775 797 815 757 l 815 703 z "},"ß":{"ha":1058,"x_min":0,"x_max":0,"o":"m 989 704 l 989 710 b 726 972 989 854 871 972 l 332 972 b 71 710 188 972 71 854 l 71 704 b 117 556 71 649 88 597 b 150 514 126 540 138 526 b 332 440 197 468 261 440 l 682 440 b 817 307 756 440 817 381 b 682 174 817 233 756 174 l 378 174 b 244 307 304 174 244 233 l 71 307 b 378 0 71 138 208 0 l 682 0 b 989 307 851 0 989 138 b 919 501 989 381 963 449 b 908 514 915 506 913 510 b 682 614 853 575 772 614 l 332 614 b 243 703 283 614 243 654 l 243 708 b 332 797 243 757 283 797 l 726 797 b 815 708 775 797 815 757 l 815 703 z "},"t":{"ha":1111,"x_min":0,"x_max":0,"o":"m 69 971 l 69 797 l 468 797 l 468 -1 l 642 -1 l 642 797 l 1040 797 l 1040 971 z "},"u":{"ha":1111,"x_min":0,"x_max":0,"o":"m 868 972 l 868 486 b 556 174 868 314 728 174 b 243 486 383 174 243 314 l 243 972 l 69 972 l 69 486 b 556 0 69 218 288 0 b 1042 486 824 0 1042 218 l 1042 972 z "},"ù":{"ha":1111,"x_min":0,"x_max":0,"o":"m 868 972 l 868 486 b 556 174 868 314 728 174 b 243 486 383 174 243 314 l 243 972 l 69 972 l 69 486 b 556 0 69 218 288 0 b 1042 486 824 0 1042 218 l 1042 972 z "},"ú":{"ha":1111,"x_min":0,"x_max":0,"o":"m 868 972 l 868 486 b 556 174 868 314 728 174 b 243 486 383 174 243 314 l 243 972 l 69 972 l 69 486 b 556 0 69 218 288 0 b 1042 486 824 0 1042 218 l 1042 972 z "},"û":{"ha":1111,"x_min":0,"x_max":0,"o":"m 868 972 l 868 486 b 556 174 868 314 728 174 b 243 486 383 174 243 314 l 243 972 l 69 972 l 69 486 b 556 0 69 218 288 0 b 1042 486 824 0 1042 218 l 1042 972 z "},"ü":{"ha":1111,"x_min":0,"x_max":0,"o":"m 868 972 l 868 486 b 556 174 868 314 728 174 b 243 486 383 174 243 314 l 243 972 l 69 972 l 69 486 b 556 0 69 218 288 0 b 1042 486 824 0 1042 218 l 1042 972 z "},"v":{"ha":1019,"x_min":0,"x_max":0,"o":"m 810 972 l 721 799 l 508 382 l 296 799 l 207 972 l 13 972 l 101 799 l 508 0 l 915 799 l 1004 972 z "},"w":{"ha":1358,"x_min":0,"x_max":0,"o":"m 1289 972 l 1108 972 l 933 386 l 786 590 l 758 629 l 679 738 l 600 629 l 572 590 l 425 386 l 425 386 l 425 386 l 250 972 l 69 972 l 296 210 l 358 1 l 358 1 l 358 1 l 486 178 l 678 443 l 871 178 l 871 178 l 999 0 l 999 0 l 999 0 l 1061 210 l 1061 210 z "},"x":{"ha":1042,"x_min":0,"x_max":0,"o":"m 35 -4 l 38 -1 l 35 -1 z m 1007 -1 l 1006 -1 l 1007 -4 z m 1007 971 l 789 971 l 522 625 l 256 971 l 36 971 l 413 483 l 39 -1 l 258 -1 l 524 342 l 789 -1 l 1008 -1 l 633 483 l 1010 971 z "},"y":{"ha":1111,"x_min":0,"x_max":0,"o":"m 822 974 l 556 628 l 289 974 l 69 974 l 446 486 l 446 486 l 469 457 l 469 1 l 643 1 l 643 460 l 664 486 l 664 486 l 1040 974 l 1040 974 z m 68 -3 l 71 0 l 68 0 z m 1040 -3 l 1040 0 l 1039 0 z "},"ý":{"ha":1111,"x_min":0,"x_max":0,"o":"m 822 974 l 556 628 l 289 974 l 69 974 l 446 486 l 446 486 l 469 457 l 469 1 l 643 1 l 643 460 l 664 486 l 664 486 l 1040 974 l 1040 974 z m 68 -3 l 71 0 l 68 0 z m 1040 -3 l 1040 0 l 1039 0 z "},"ÿ":{"ha":1111,"x_min":0,"x_max":0,"o":"m 822 974 l 556 628 l 289 974 l 69 974 l 446 486 l 446 486 l 469 457 l 469 1 l 643 1 l 643 460 l 664 486 l 664 486 l 1040 974 l 1040 974 z m 68 -3 l 71 0 l 68 0 z m 1040 -3 l 1040 0 l 1039 0 z "},"z":{"ha":1111,"x_min":0,"x_max":0,"o":"m 425 174 l 556 342 l 665 483 l 907 797 l 1042 971 l 1042 971 l 824 971 l 824 971 l 72 971 l 72 797 l 690 797 l 557 625 l 447 483 l 208 174 l 75 0 l 74 -1 l 293 -1 l 294 0 l 1046 0 l 1046 174 z "},"{":{"ha":529,"x_min":0,"x_max":0,"o":"m 381 -44 b 351 -21 367 -44 354 -35 l 351 290 b 350 319 351 300 351 310 b 315 406 346 351 333 381 b 350 492 333 431 346 460 b 351 521 351 501 351 511 l 351 832 b 381 856 354 846 367 856 l 460 856 l 460 1029 l 381 1029 b 351 1028 371 1029 361 1029 b 178 826 253 1014 178 929 l 178 517 b 149 493 175 503 163 493 l 69 493 l 69 319 l 149 319 b 178 296 163 319 175 310 l 178 -14 b 351 -215 178 -117 253 -201 b 381 -217 361 -217 371 -217 l 460 -217 l 460 -43 z "},"}":{"ha":529,"x_min":0,"x_max":0,"o":"m 381 507 b 351 531 367 507 354 517 l 351 840 b 178 1042 351 943 276 1028 b 149 1043 168 1043 158 1043 l 69 1043 l 69 869 l 149 869 b 178 846 163 869 175 860 l 178 535 b 179 506 178 525 178 515 b 214 419 183 474 196 444 b 179 333 196 394 183 365 b 178 304 178 324 178 314 l 178 -7 b 149 -31 175 -21 163 -31 l 69 -31 l 69 -204 l 149 -204 b 178 -203 158 -204 168 -204 b 351 -1 276 -189 351 -104 l 351 308 b 381 332 354 322 367 332 l 460 332 l 460 347 l 460 504 z "},"~":{"ha":821,"x_min":0,"x_max":0,"o":"m 460 522 b 411 543 443 531 426 538 l 411 543 b 411 543 411 543 411 543 b 263 572 356 564 307 574 b 69 496 189 571 128 543 l 69 325 b 69 325 69 325 69 325 l 69 325 b 247 410 146 375 193 407 b 360 382 279 411 314 403 b 408 361 376 374 393 367 l 408 361 b 408 361 408 361 408 361 b 749 408 554 306 657 333 l 749 579 b 457 522 626 500 578 465 z "}," ":{"ha":676,"x_min":0,"x_max":0,"o":""},"£":{"ha":1046,"x_min":0,"x_max":0,"o":"m 976 564 l 976 688 b 961 776 976 718 971 749 b 714 950 925 878 828 950 l 508 950 b 261 776 394 950 297 878 b 246 688 251 749 246 718 l 246 564 l 71 564 l 71 390 l 246 390 l 246 -22 l 978 -22 l 978 151 l 419 151 l 419 390 l 732 390 l 732 564 l 419 564 l 419 688 b 508 776 419 736 460 776 l 714 776 b 803 688 763 776 803 736 l 803 564 z "},"­":{"ha":139,"x_min":0,"x_max":0,"o":""},"×":{"ha":728,"x_min":0,"x_max":0,"o":"m 658 631 l 536 753 l 364 581 l 192 753 l 69 631 l 242 458 l 69 286 l 192 164 l 364 336 l 535 164 l 657 286 l 485 458 z "},"÷":{"ha":797,"x_min":0,"x_max":0,"o":"m 728 372 l 728 546 l 69 546 l 69 372 z m 486 615 l 486 789 l 313 789 l 313 615 z m 486 131 l 486 304 l 313 304 l 313 131 z "},"‘":{"ha":313,"x_min":0,"x_max":0,"o":"m 243 868 l 157 1042 l 71 1042 l 71 694 l 244 694 l 244 868 z "},"’":{"ha":313,"x_min":0,"x_max":0,"o":"m 69 1042 l 69 868 l 69 868 l 156 694 l 242 694 l 242 1042 z "},"“":{"ha":533,"x_min":0,"x_max":0,"o":"m 464 867 l 378 1040 l 292 1040 l 292 693 l 465 693 l 465 867 z m 157 1040 l 71 1040 l 71 693 l 244 693 l 244 867 l 244 867 z "},"”":{"ha":533,"x_min":0,"x_max":0,"o":"m 69 867 l 69 867 l 156 693 l 242 693 l 242 1040 l 68 1040 z m 290 1040 l 290 867 l 290 867 l 376 693 l 463 693 l 463 1040 z "},"€":{"ha":1069,"x_min":0,"x_max":0,"o":"m 1000 778 l 1000 951 l 692 951 b 261 689 504 951 342 844 l 71 689 l 71 515 l 208 515 b 208 515 208 515 208 515 b 207 465 207 499 207 482 b 207 428 207 453 207 440 l 71 428 l 71 254 l 254 254 b 254 254 254 254 254 254 b 692 -22 332 90 499 -22 l 1000 -22 l 1000 151 l 692 151 b 461 254 600 151 518 192 b 461 254 461 254 461 254 l 833 254 l 833 428 l 381 428 b 379 465 379 440 379 453 b 383 515 379 482 381 499 b 383 515 383 515 383 515 l 833 515 l 833 689 l 472 689 b 692 778 529 744 607 778 z "}}}
